<svg xmlns="http://www.w3.org/2000/svg" xmlns:xlink="http://www.w3.org/1999/xlink" viewBox="0 0 170.69 44.68"><defs><style>.cls-1{fill:url(#linear-gradient);}.cls-2{fill:none;stroke-miterlimit:10;stroke:url(#linear-gradient-6);}</style><linearGradient id="linear-gradient" x1="85.15" y1="44.18" x2="85.15" y2="0.5" gradientUnits="userSpaceOnUse"><stop offset="0" stop-color="#b57e10"/><stop offset="0.09" stop-color="#e5c35c"/><stop offset="0.14" stop-color="#f9df7b"/><stop offset="0.19" stop-color="#fff3a6"/><stop offset="0.27" stop-color="#f9df7b"/><stop offset="0.52" stop-color="#b57e10"/><stop offset="0.56" stop-color="#e5c35c"/><stop offset="0.57" stop-color="#f9df7b"/><stop offset="0.79" stop-color="#fff3a6"/><stop offset="0.84" stop-color="#f9df7b"/><stop offset="1" stop-color="#b57e10"/></linearGradient><linearGradient id="linear-gradient-6" x1="85.15" y1="44.18" x2="85.15" y2="0.5" gradientUnits="userSpaceOnUse"><stop offset="0" stop-color="#b57e10"/><stop offset="0.09" stop-color="#e5c35c"/><stop offset="0.14" stop-color="#f9df7b"/><stop offset="0.26" stop-color="#fff3a6"/><stop offset="0.36" stop-color="#f9df7b"/><stop offset="0.49" stop-color="#b57e10"/><stop offset="0.57" stop-color="#e5c35c"/><stop offset="0.61" stop-color="#f9df7b"/><stop offset="0.72" stop-color="#fff3a6"/><stop offset="0.84" stop-color="#f9df7b"/><stop offset="1" stop-color="#b57e10"/></linearGradient></defs><g id="Layer_2" data-name="Layer 2"><g id="Layer_1-2" data-name="Layer 1"><path class="cls-1" d="M11.65,1.34h7.2v42H10.57V10.1L2.65,12.32l-2-7.08Z"/><path class="cls-1" d="M41.77,16.64A14.79,14.79,0,0,1,52,20.3q4.14,3.6,4.14,10.08c0,4.32-1.44,7.68-4.38,10.14a15.77,15.77,0,0,1-10.62,3.66c-6.78,0-12.3-3.06-14.64-9L33.55,31q1.53,5,7.56,5c4.26,0,6.72-2.16,6.72-5.7s-2.46-5.7-6.48-5.7H28.63L30.31,1.34H54.13V9.08H38l-.54,7.56Z"/><path class="cls-1" d="M75.85,16.64a14.79,14.79,0,0,1,10.2,3.66q4.14,3.6,4.14,10.08c0,4.32-1.44,7.68-4.38,10.14a15.77,15.77,0,0,1-10.62,3.66c-6.78,0-12.3-3.06-14.64-9L67.63,31q1.53,5,7.56,5c4.26,0,6.72-2.16,6.72-5.7s-2.46-5.7-6.48-5.7H62.71L64.39,1.34H88.21V9.08H72.07l-.54,7.56Z"/><path class="cls-1" d="M99.91,38.24c-2.94-4-4.44-9.3-4.44-15.9S97,10.46,99.91,6.5a14.58,14.58,0,0,1,12.36-6c5.28,0,9.42,2,12.36,6s4.44,9.24,4.44,15.84-1.5,11.88-4.44,15.9-7.08,5.94-12.36,5.94A14.68,14.68,0,0,1,99.91,38.24Zm12.36-29.7c-5.58,0-8.52,4.86-8.52,13.8s2.94,13.74,8.52,13.74,8.58-4.86,8.58-13.74S117.85,8.54,112.27,8.54Z"/><path class="cls-1" d="M169.69,43.34h-9.54l-15-19.68V43.34h-8.28v-42h8.28V19.88l14.4-18.54h9.54l-15.54,20.4Z"/><path class="cls-2" d="M11.65,1.34h7.2v42H10.57V10.1L2.65,12.32l-2-7.08Z"/><path class="cls-2" d="M41.77,16.64A14.79,14.79,0,0,1,52,20.3q4.14,3.6,4.14,10.08c0,4.32-1.44,7.68-4.38,10.14a15.77,15.77,0,0,1-10.62,3.66c-6.78,0-12.3-3.06-14.64-9L33.55,31q1.53,5,7.56,5c4.26,0,6.72-2.16,6.72-5.7s-2.46-5.7-6.48-5.7H28.63L30.31,1.34H54.13V9.08H38l-.54,7.56Z"/><path class="cls-2" d="M75.85,16.64a14.79,14.79,0,0,1,10.2,3.66q4.14,3.6,4.14,10.08c0,4.32-1.44,7.68-4.38,10.14a15.77,15.77,0,0,1-10.62,3.66c-6.78,0-12.3-3.06-14.64-9L67.63,31q1.53,5,7.56,5c4.26,0,6.72-2.16,6.72-5.7s-2.46-5.7-6.48-5.7H62.71L64.39,1.34H88.21V9.08H72.07l-.54,7.56Z"/><path class="cls-2" d="M99.91,38.24c-2.94-4-4.44-9.3-4.44-15.9S97,10.46,99.91,6.5a14.58,14.58,0,0,1,12.36-6c5.28,0,9.42,2,12.36,6s4.44,9.24,4.44,15.84-1.5,11.88-4.44,15.9-7.08,5.94-12.36,5.94A14.68,14.68,0,0,1,99.91,38.24Zm12.36-29.7c-5.58,0-8.52,4.86-8.52,13.8s2.94,13.74,8.52,13.74,8.58-4.86,8.58-13.74S117.85,8.54,112.27,8.54Z"/><path class="cls-2" d="M169.69,43.34h-9.54l-15-19.68V43.34h-8.28v-42h8.28V19.88l14.4-18.54h9.54l-15.54,20.4Z"/></g></g></svg>