<svg xmlns="http://www.w3.org/2000/svg" xmlns:xlink="http://www.w3.org/1999/xlink" viewBox="0 0 703.25 68.88"><defs><style>.cls-1{fill:url(#linear-gradient);}</style><linearGradient id="linear-gradient" y1="34.44" x2="703.25" y2="34.44" gradientUnits="userSpaceOnUse"><stop offset="0" stop-color="#b57e10"/><stop offset="0.09" stop-color="#e5c35c"/><stop offset="0.14" stop-color="#f9df7b"/><stop offset="0.26" stop-color="#fff3a6"/><stop offset="0.36" stop-color="#f9df7b"/><stop offset="0.49" stop-color="#b57e10"/><stop offset="0.57" stop-color="#e5c35c"/><stop offset="0.61" stop-color="#f9df7b"/><stop offset="0.72" stop-color="#fff3a6"/><stop offset="0.84" stop-color="#f9df7b"/><stop offset="1" stop-color="#b57e10"/></linearGradient></defs><g id="Layer_2" data-name="Layer 2"><g id="Layer_1-2" data-name="Layer 1"><path class="cls-1" d="M13.38,54,0,12H13.2l6.9,26.7L27,12H40.2L26.82,54Z"/><path class="cls-1" d="M45,12H57V54H45Z"/><path class="cls-1" d="M76.8,43H92.4V54H64.8V12H92.1V22.92H76.8v4.56H90.6v10.8H76.8ZM78.18,6.12,75.48,9.6h-9.3L72.54,0H83.82l6.36,9.6h-9.3Z"/><path class="cls-1" d="M121.8,12h12V54h-9.6L111,34.8V54H99V12h9.6l13.2,19.2Z"/><path class="cls-1" d="M174,12a19.38,19.38,0,0,1,14.52,6.06A20.64,20.64,0,0,1,194.4,33a20.78,20.78,0,0,1-5.88,15A19.33,19.33,0,0,1,174,54H156.6V37.8h-3.3V28.86h3.3V12Zm0,30.36c4.86,0,8.4-3.84,8.4-9.36s-3.54-9.36-8.4-9.36h-4.8v5.22h6.36V37.8H169.2v4.56Z"/><path class="cls-1" d="M223.5,54l-1.44-5.4H209.94L208.5,54H195.6L209,12h14L236.4,54ZM214,.54c0,1.5.66,2.22,2,2.22S217.92,2,217.92.54h8.4C226.32,6.78,222.6,10,216,10S205.68,6.78,205.68.54ZM211.86,67.2a5.93,5.93,0,0,1-1.68-4.08,5.79,5.79,0,0,1,1.68-4A5.87,5.87,0,0,1,216,57.36a6,6,0,0,1,5.76,5.76A5.84,5.84,0,0,1,216,68.88,6.07,6.07,0,0,1,211.86,67.2Zm.66-28.2h7L216,26.1Z"/><path class="cls-1" d="M266.1,12V23.64h-9.9V54h-12V23.64h-9.9V12Z"/><path class="cls-1" d="M282.9,44.4l10.26-5.94c1.38,3.54,3.9,5.34,7.56,5.34,2.7,0,4.08-.72,4.08-2.16a1.94,1.94,0,0,0-1.44-1.92,11.68,11.68,0,0,0-1.5-.54c-.42-.18-1.14-.36-2.16-.66l-2.34-.66c-8.34-2.52-12.54-7-12.54-13.5A12.36,12.36,0,0,1,289,14.82a15.86,15.86,0,0,1,11-3.78c7.14,0,13.14,3.48,15.78,9.78l-10,5.82c-1.14-2.94-3.06-4.44-5.76-4.44-2.1,0-3.18,1-3.18,2.22a2.24,2.24,0,0,0,1.38,2,38,38,0,0,0,5.46,1.86,26.75,26.75,0,0,1,8.94,4c2.82,1.92,4.2,5,4.2,9.18,0,8.58-6.3,13.44-16.38,13.44C291.3,55,285,50.88,282.9,44.4Z"/><path class="cls-1" d="M333.9,43h15.6V54H321.9V12h27.3V22.92H333.9v4.56h13.8v10.8H333.9Z"/><path class="cls-1" d="M405.66,54H392.33L381.9,36V54h-12V12h12V28.8L391.74,12h13.31L392.58,32.4Z"/><path class="cls-1" d="M432.05,12h12V54h-12V38.52h-10.2V54h-12V12h12V26.88h10.2Z"/><path class="cls-1" d="M456.06,0h12.59L461.7,9H451.25Zm-4.2,54h12V12h-12Z"/><path class="cls-1" d="M501.05,12V23.64h-9.9V54h-12V23.64h-9.91V12Z"/><path class="cls-1" d="M562.07,29.22v5a20.17,20.17,0,0,1-5.82,14.88C552.41,53,547.37,55,541.07,55c-6.54,0-11.94-2.1-16.08-6.24a21.45,21.45,0,0,1-6.24-15.66A21.45,21.45,0,0,1,525,17.4,20.85,20.85,0,0,1,540.59,11a21.54,21.54,0,0,1,18.48,9.78l-10.2,5.82c-1.68-2.58-4.38-3.84-8-3.84a9.76,9.76,0,0,0-7.32,2.88,10.19,10.19,0,0,0-2.76,7.44,11.67,11.67,0,0,0,2.58,7.56c1.74,2.1,4.38,3.18,8,3.18,4.14,0,7-1.5,8.34-4.44h-8.94V29.22Z"/><path class="cls-1" d="M573.11,48.66A21.45,21.45,0,0,1,566.87,33a21.45,21.45,0,0,1,6.24-15.66,22.17,22.17,0,0,1,34.14,3.9l-10.44,6a8.78,8.78,0,0,0-8-4.44,9.58,9.58,0,0,0-7.2,2.88A10.1,10.1,0,0,0,578.87,33a10.1,10.1,0,0,0,2.76,7.32,9.58,9.58,0,0,0,7.2,2.88c3.6,0,6.6-1.68,8-4.5l10.44,6a22.13,22.13,0,0,1-34.14,4Z"/><path class="cls-1" d="M624.05,43h15.6V54h-27.6V12h27.3V22.92h-15.3v4.56h13.8v10.8h-13.8Z"/><path class="cls-1" d="M658.25,42.36h13.8V54h-25.8V12h12Z"/><path class="cls-1" d="M689.45,42.36h13.8V54h-25.8V12h12Z"/></g></g></svg>