<svg xmlns="http://www.w3.org/2000/svg" xmlns:xlink="http://www.w3.org/1999/xlink" viewBox="0 0 146.41 210.27"><defs><style>.cls-1{fill:url(#linear-gradient);}.cls-2{fill:none;stroke-miterlimit:10;stroke-width:4.8px;stroke:url(#linear-gradient-2);}</style><linearGradient id="linear-gradient" x1="73.51" y1="207.87" x2="73.51" y2="2.4" gradientUnits="userSpaceOnUse"><stop offset="0" stop-color="#b57e10"/><stop offset="0.09" stop-color="#e5c35c"/><stop offset="0.14" stop-color="#f9df7b"/><stop offset="0.19" stop-color="#fff3a6"/><stop offset="0.27" stop-color="#f9df7b"/><stop offset="0.52" stop-color="#b57e10"/><stop offset="0.56" stop-color="#e5c35c"/><stop offset="0.57" stop-color="#f9df7b"/><stop offset="0.79" stop-color="#fff3a6"/><stop offset="0.84" stop-color="#f9df7b"/><stop offset="1" stop-color="#b57e10"/></linearGradient><linearGradient id="linear-gradient-2" x1="73.51" y1="207.87" x2="73.51" y2="2.4" gradientUnits="userSpaceOnUse"><stop offset="0" stop-color="#b57e10"/><stop offset="0.09" stop-color="#e5c35c"/><stop offset="0.14" stop-color="#f9df7b"/><stop offset="0.26" stop-color="#fff3a6"/><stop offset="0.36" stop-color="#f9df7b"/><stop offset="0.49" stop-color="#b57e10"/><stop offset="0.57" stop-color="#e5c35c"/><stop offset="0.61" stop-color="#f9df7b"/><stop offset="0.72" stop-color="#fff3a6"/><stop offset="0.84" stop-color="#f9df7b"/><stop offset="1" stop-color="#b57e10"/></linearGradient></defs><g id="Layer_2" data-name="Layer 2"><g id="Layer_1-2" data-name="Layer 1"><path class="cls-1" d="M98,84.13c27.34,8.06,46,29.06,46,57.55,0,20.72-6.9,36.84-21,48.64-13.82,11.8-30.8,17.55-50.94,17.55C40.7,207.87,14.23,193.2,3,165.28l34-19.57C41.85,161.25,53.65,169,72.07,169c20.43,0,32.23-10.36,32.23-27.34,0-16.4-11.8-27.34-32.23-27.34H63.44l-15.26-23L87.9,39.52H9V2.4H135.67V35.21Z"/><path class="cls-2" d="M98,84.13c27.34,8.06,46,29.06,46,57.55,0,20.72-6.9,36.84-21,48.64-13.82,11.8-30.8,17.55-50.94,17.55C40.7,207.87,14.23,193.2,3,165.28l34-19.57C41.85,161.25,53.65,169,72.07,169c20.43,0,32.23-10.36,32.23-27.34,0-16.4-11.8-27.34-32.23-27.34H63.44l-15.26-23L87.9,39.52H9V2.4H135.67V35.21Z"/></g></g></svg>