<svg xmlns="http://www.w3.org/2000/svg" xmlns:xlink="http://www.w3.org/1999/xlink" viewBox="0 0 733.86 44.92"><defs><style>.cls-1{fill:url(#linear-gradient);}.cls-2{fill:none;stroke-miterlimit:10;stroke:url(#linear-gradient-19);}</style><linearGradient id="linear-gradient" x1="366.77" y1="44.42" x2="366.77" y2="0.5" gradientUnits="userSpaceOnUse"><stop offset="0" stop-color="#b57e10"/><stop offset="0.09" stop-color="#e5c35c"/><stop offset="0.14" stop-color="#f9df7b"/><stop offset="0.19" stop-color="#fff3a6"/><stop offset="0.27" stop-color="#f9df7b"/><stop offset="0.52" stop-color="#b57e10"/><stop offset="0.56" stop-color="#e5c35c"/><stop offset="0.57" stop-color="#f9df7b"/><stop offset="0.79" stop-color="#fff3a6"/><stop offset="0.84" stop-color="#f9df7b"/><stop offset="1" stop-color="#b57e10"/></linearGradient><linearGradient id="linear-gradient-19" x1="366.77" y1="44.42" x2="366.77" y2="0.5" gradientUnits="userSpaceOnUse"><stop offset="0" stop-color="#b57e10"/><stop offset="0.09" stop-color="#e5c35c"/><stop offset="0.14" stop-color="#f9df7b"/><stop offset="0.26" stop-color="#fff3a6"/><stop offset="0.36" stop-color="#f9df7b"/><stop offset="0.49" stop-color="#b57e10"/><stop offset="0.57" stop-color="#e5c35c"/><stop offset="0.61" stop-color="#f9df7b"/><stop offset="0.72" stop-color="#fff3a6"/><stop offset="0.84" stop-color="#f9df7b"/><stop offset="1" stop-color="#b57e10"/></linearGradient></defs><g id="Layer_2" data-name="Layer 2"><g id="Layer_1-2" data-name="Layer 1"><path class="cls-1" d="M43.82,18.68v5A20.17,20.17,0,0,1,38,38.54c-3.84,3.9-8.88,5.88-15.18,5.88-6.54,0-11.94-2.1-16.08-6.24A21.45,21.45,0,0,1,.5,22.52,21.45,21.45,0,0,1,6.74,6.86,20.85,20.85,0,0,1,22.34.5a21.54,21.54,0,0,1,18.48,9.78L30.62,16.1c-1.68-2.58-4.38-3.84-8-3.84a9.76,9.76,0,0,0-7.32,2.88,10.19,10.19,0,0,0-2.76,7.44,11.67,11.67,0,0,0,2.58,7.56c1.74,2.1,4.38,3.18,8,3.18,4.14,0,7-1.5,8.34-4.44H22.46V18.68Z"/><path class="cls-1" d="M54.86,38.12a21.45,21.45,0,0,1-6.24-15.66A21.45,21.45,0,0,1,54.86,6.8,21.21,21.21,0,0,1,70.58.5,21.26,21.26,0,0,1,89,10.7l-10.44,6a8.78,8.78,0,0,0-8-4.44,9.58,9.58,0,0,0-7.2,2.88,10.1,10.1,0,0,0-2.76,7.32,10.1,10.1,0,0,0,2.76,7.32,9.58,9.58,0,0,0,7.2,2.88c3.6,0,6.6-1.68,8-4.5l10.44,6A21.19,21.19,0,0,1,70.58,44.42,21.21,21.21,0,0,1,54.86,38.12Z"/><path class="cls-1" d="M105.8,32.42h15.6v11H93.8v-42h27.3V12.38H105.8v4.56h13.8v10.8H105.8Z"/><path class="cls-1" d="M140,31.82h13.8V43.46H128v-42h12Z"/><path class="cls-1" d="M171.2,31.82H185V43.46H159.2v-42h12Z"/><path class="cls-1" d="M241.64,1.46l-14.22,26v16h-12v-16l-14.22-26h13.32l6.9,14.76,6.9-14.76Z"/><path class="cls-1" d="M274.76,31.82h14V43.46H259V34.22L272.42,13.1H259.34V1.46h28.8V10.7Z"/><path class="cls-1" d="M315.5,44.42a21.86,21.86,0,0,1-15.84-6.3,21.32,21.32,0,0,1-6.42-15.66,21.09,21.09,0,0,1,6.42-15.6A21.68,21.68,0,0,1,315.5.5a21.44,21.44,0,0,1,15.78,6.36,20.92,20.92,0,0,1,6.48,15.6,21.14,21.14,0,0,1-6.48,15.66A21.63,21.63,0,0,1,315.5,44.42Zm0-11.76a9.95,9.95,0,0,0,10.26-10.2,9.63,9.63,0,0,0-2.94-7.26,9.77,9.77,0,0,0-7.32-2.94,10,10,0,0,0-7.38,2.94,9.81,9.81,0,0,0-2.88,7.26,10,10,0,0,0,2.88,7.32A10.18,10.18,0,0,0,315.5,32.66Z"/><path class="cls-1" d="M366.86,1.46h12v42h-9.6l-13.2-19.2v19.2h-12v-42h9.6l13.2,19.2Z"/><path class="cls-1" d="M398.66,32.42h15.59v11H386.66v-42H414V12.38h-15.3v4.56h13.8v10.8h-13.8Z"/><path class="cls-1" d="M439.39,38.12a21.44,21.44,0,0,1-6.23-15.66A21.44,21.44,0,0,1,439.39,6.8a22.17,22.17,0,0,1,34.14,3.9l-10.44,6a8.78,8.78,0,0,0-8-4.44,9.54,9.54,0,0,0-7.19,2.88,10.07,10.07,0,0,0-2.77,7.32,10.07,10.07,0,0,0,2.77,7.32,9.54,9.54,0,0,0,7.19,2.88c3.6,0,6.6-1.68,8-4.5l10.44,6a22.13,22.13,0,0,1-34.14,4Z"/><path class="cls-1" d="M490.33,31.82h13.8V43.46h-25.8v-42h12Z"/><path class="cls-1" d="M521.53,32.42h15.6v11H509.54v-42h27.29V12.38h-15.3v4.56h13.8v10.8h-13.8Z"/><path class="cls-1" d="M568.63,43.46l-1.44-5.4H555.07l-1.44,5.4h-12.9l13.38-42h14l13.38,42Zm-11-15h7l-3.48-12.9Z"/><path class="cls-1" d="M608.53,1.46h12v42h-9.6l-13.2-19.2v19.2h-12v-42h9.6l13.2,19.2Z"/><path class="cls-1" d="M625.33,33.86l10.26-5.94c1.38,3.54,3.9,5.34,7.56,5.34,2.7,0,4.08-.72,4.08-2.16a1.94,1.94,0,0,0-1.44-1.92,11.68,11.68,0,0,0-1.5-.54c-.42-.18-1.14-.36-2.16-.66l-2.34-.66c-8.34-2.52-12.54-7-12.54-13.5a12.36,12.36,0,0,1,4.14-9.54,15.86,15.86,0,0,1,11-3.78c7.14,0,13.14,3.48,15.78,9.78l-10,5.82c-1.14-2.94-3.06-4.44-5.76-4.44-2.1,0-3.18,1-3.18,2.22a2.24,2.24,0,0,0,1.38,2,38,38,0,0,0,5.46,1.86,26.75,26.75,0,0,1,8.94,4c2.82,1.92,4.2,5,4.2,9.18,0,8.58-6.3,13.44-16.38,13.44C633.73,44.42,627.43,40.34,625.33,33.86Z"/><path class="cls-1" d="M676.33,32.42h15.6v11h-27.6v-42h27.3V12.38h-15.3v4.56h13.8v10.8h-13.8Z"/><path class="cls-1" d="M720.19,43.4l-6.66-13.2h-3V43.4h-12V1.4h16.8a16.38,16.38,0,0,1,11.4,4.08,13.65,13.65,0,0,1,4.5,10.68,13.15,13.15,0,0,1-6.48,11.58L733,43.4Zm-9.66-31v7.8h4.56c2.58.06,4.14-1.38,4.14-3.84s-1.56-4-4.14-4Z"/><path class="cls-2" d="M43.82,18.68v5A20.17,20.17,0,0,1,38,38.54c-3.84,3.9-8.88,5.88-15.18,5.88-6.54,0-11.94-2.1-16.08-6.24A21.45,21.45,0,0,1,.5,22.52,21.45,21.45,0,0,1,6.74,6.86,20.85,20.85,0,0,1,22.34.5a21.54,21.54,0,0,1,18.48,9.78L30.62,16.1c-1.68-2.58-4.38-3.84-8-3.84a9.76,9.76,0,0,0-7.32,2.88,10.19,10.19,0,0,0-2.76,7.44,11.67,11.67,0,0,0,2.58,7.56c1.74,2.1,4.38,3.18,8,3.18,4.14,0,7-1.5,8.34-4.44H22.46V18.68Z"/><path class="cls-2" d="M54.86,38.12a21.45,21.45,0,0,1-6.24-15.66A21.45,21.45,0,0,1,54.86,6.8,21.21,21.21,0,0,1,70.58.5,21.26,21.26,0,0,1,89,10.7l-10.44,6a8.78,8.78,0,0,0-8-4.44,9.58,9.58,0,0,0-7.2,2.88,10.1,10.1,0,0,0-2.76,7.32,10.1,10.1,0,0,0,2.76,7.32,9.58,9.58,0,0,0,7.2,2.88c3.6,0,6.6-1.68,8-4.5l10.44,6A21.19,21.19,0,0,1,70.58,44.42,21.21,21.21,0,0,1,54.86,38.12Z"/><path class="cls-2" d="M105.8,32.42h15.6v11H93.8v-42h27.3V12.38H105.8v4.56h13.8v10.8H105.8Z"/><path class="cls-2" d="M140,31.82h13.8V43.46H128v-42h12Z"/><path class="cls-2" d="M171.2,31.82H185V43.46H159.2v-42h12Z"/><path class="cls-2" d="M241.64,1.46l-14.22,26v16h-12v-16l-14.22-26h13.32l6.9,14.76,6.9-14.76Z"/><path class="cls-2" d="M274.76,31.82h14V43.46H259V34.22L272.42,13.1H259.34V1.46h28.8V10.7Z"/><path class="cls-2" d="M315.5,44.42a21.86,21.86,0,0,1-15.84-6.3,21.32,21.32,0,0,1-6.42-15.66,21.09,21.09,0,0,1,6.42-15.6A21.68,21.68,0,0,1,315.5.5a21.44,21.44,0,0,1,15.78,6.36,20.92,20.92,0,0,1,6.48,15.6,21.14,21.14,0,0,1-6.48,15.66A21.63,21.63,0,0,1,315.5,44.42Zm0-11.76a9.95,9.95,0,0,0,10.26-10.2,9.63,9.63,0,0,0-2.94-7.26,9.77,9.77,0,0,0-7.32-2.94,10,10,0,0,0-7.38,2.94,9.81,9.81,0,0,0-2.88,7.26,10,10,0,0,0,2.88,7.32A10.18,10.18,0,0,0,315.5,32.66Z"/><path class="cls-2" d="M366.86,1.46h12v42h-9.6l-13.2-19.2v19.2h-12v-42h9.6l13.2,19.2Z"/><path class="cls-2" d="M398.66,32.42h15.59v11H386.66v-42H414V12.38h-15.3v4.56h13.8v10.8h-13.8Z"/><path class="cls-2" d="M439.39,38.12a21.44,21.44,0,0,1-6.23-15.66A21.44,21.44,0,0,1,439.39,6.8a22.17,22.17,0,0,1,34.14,3.9l-10.44,6a8.78,8.78,0,0,0-8-4.44,9.54,9.54,0,0,0-7.19,2.88,10.07,10.07,0,0,0-2.77,7.32,10.07,10.07,0,0,0,2.77,7.32,9.54,9.54,0,0,0,7.19,2.88c3.6,0,6.6-1.68,8-4.5l10.44,6a22.13,22.13,0,0,1-34.14,4Z"/><path class="cls-2" d="M490.33,31.82h13.8V43.46h-25.8v-42h12Z"/><path class="cls-2" d="M521.53,32.42h15.6v11H509.54v-42h27.29V12.38h-15.3v4.56h13.8v10.8h-13.8Z"/><path class="cls-2" d="M568.63,43.46l-1.44-5.4H555.07l-1.44,5.4h-12.9l13.38-42h14l13.38,42Zm-11-15h7l-3.48-12.9Z"/><path class="cls-2" d="M608.53,1.46h12v42h-9.6l-13.2-19.2v19.2h-12v-42h9.6l13.2,19.2Z"/><path class="cls-2" d="M625.33,33.86l10.26-5.94c1.38,3.54,3.9,5.34,7.56,5.34,2.7,0,4.08-.72,4.08-2.16a1.94,1.94,0,0,0-1.44-1.92,11.68,11.68,0,0,0-1.5-.54c-.42-.18-1.14-.36-2.16-.66l-2.34-.66c-8.34-2.52-12.54-7-12.54-13.5a12.36,12.36,0,0,1,4.14-9.54,15.86,15.86,0,0,1,11-3.78c7.14,0,13.14,3.48,15.78,9.78l-10,5.82c-1.14-2.94-3.06-4.44-5.76-4.44-2.1,0-3.18,1-3.18,2.22a2.24,2.24,0,0,0,1.38,2,38,38,0,0,0,5.46,1.86,26.75,26.75,0,0,1,8.94,4c2.82,1.92,4.2,5,4.2,9.18,0,8.58-6.3,13.44-16.38,13.44C633.73,44.42,627.43,40.34,625.33,33.86Z"/><path class="cls-2" d="M676.33,32.42h15.6v11h-27.6v-42h27.3V12.38h-15.3v4.56h13.8v10.8h-13.8Z"/><path class="cls-2" d="M720.19,43.4l-6.66-13.2h-3V43.4h-12V1.4h16.8a16.38,16.38,0,0,1,11.4,4.08,13.65,13.65,0,0,1,4.5,10.68,13.15,13.15,0,0,1-6.48,11.58L733,43.4Zm-9.66-31v7.8h4.56c2.58.06,4.14-1.38,4.14-3.84s-1.56-4-4.14-4Z"/></g></g></svg>